<svg xmlns="http://www.w3.org/2000/svg" width="224.911" height="42.045" viewBox="0 0 224.911 42.045">
  <g id="Group_220" data-name="Group 220" transform="translate(-103.492 -83.095)">
    <path id="Path_30" data-name="Path 30" d="M11.554-2.331A7.842,7.842,0,0,1,10.231.916,6.631,6.631,0,0,1,7.654,3.058a8.3,8.3,0,0,1-3.622.757H.132L2.291-8.46h3.9a5.971,5.971,0,0,1,4.074,1.245,4.391,4.391,0,0,1,1.41,3.474A7.971,7.971,0,0,1,11.554-2.331Zm-7.4,4.719A5.891,5.891,0,0,0,8.063,1.142,5.577,5.577,0,0,0,9.935-2.331a6.816,6.816,0,0,0,.1-1.149A3.33,3.33,0,0,0,8.968-6.136a4.661,4.661,0,0,0-3.143-.932H3.632L1.96,2.387ZM16.133-7.172l-.731,4.2h4.666l-.226,1.219H15.176l-.749,4.283h5.189l-.226,1.288H12.616L14.775-8.46h6.773l-.226,1.288Zm7.1,9.75H27.59l-.226,1.236H21.426L23.585-8.46H25.17ZM32.726-8.46,30.567,3.815H28.983L31.142-8.46Zm3.343,0,1.9,10.517L43.609-8.46h1.724L38.664,3.815h-2L34.328-8.46ZM48.292-7.172l-.731,4.2h4.666L52-1.757H47.335l-.749,4.283h5.189l-.226,1.288H44.775L46.934-8.46h6.773l-.226,1.288ZM59.784-8.46a4.084,4.084,0,0,1,2.707.766,2.6,2.6,0,0,1,.9,2.089,4.288,4.288,0,0,1-.07.8,4.034,4.034,0,0,1-1.254,2.4,4.766,4.766,0,0,1-2.629,1.149l2.455,5.067H60.1L57.764-1.2H56.058L55.17,3.815H53.585L55.744-8.46ZM61.7-4.717a3.517,3.517,0,0,0,.052-.575q0-1.793-2.333-1.793H57.1l-.836,4.736h2.316Q61.264-2.349,61.7-4.717ZM74.619-8.46,69.256-.834l-.818,4.649h-1.6l.818-4.649-2.7-7.626H66.8l1.95,5.937L72.808-8.46Z" transform="translate(202.954 98.005)" fill="#fff"/>
    <path id="Path_31" data-name="Path 31" d="M49.749-28.191,42.492,13.035H37.078l5.711-32.719L23.931,13.035H19.112L11.676-19.684,5.965,13.035H.492l7.2-41.226h6.544L22.8,6.372,43.265-28.191Zm37.419-.714-.773,4.4H74.556l-6.6,37.538H62.54l6.6-37.538H57.364l.714-4.4Z" transform="translate(103 112)" fill="#fff"/>
    <path id="Path_27" data-name="Path 27" d="M9.515-8.422,9.289-7.134H5.824L3.891,3.853H2.307L4.239-7.134H.792L1-8.422Zm5.607,0a4.084,4.084,0,0,1,2.707.766,2.6,2.6,0,0,1,.9,2.089,4.288,4.288,0,0,1-.07.8,4.034,4.034,0,0,1-1.254,2.4,4.766,4.766,0,0,1-2.629,1.149l2.455,5.067H15.435L13.1-1.162H11.4l-.888,5.015H8.923L11.082-8.422Zm1.915,3.743a3.517,3.517,0,0,0,.052-.575q0-1.793-2.333-1.793H12.44L11.6-2.311H13.92Q16.6-2.311,17.037-4.679Zm9.75,5.694h-5.4L19.858,3.853H18.169L24.8-8.2h1.811l2.4,12.049H27.31ZM26.561-.221,25.412-6.437,22.052-.221ZM38.209-8.544a5.182,5.182,0,0,1,3.517,1.106,4.477,4.477,0,0,1,1.48,3.021H41.535a3.166,3.166,0,0,0-1.167-1.941,3.843,3.843,0,0,0-2.438-.723,4.6,4.6,0,0,0-2.246.583,5.123,5.123,0,0,0-1.793,1.672A6.592,6.592,0,0,0,32.9-2.276a6.517,6.517,0,0,0-.1,1.132,3.657,3.657,0,0,0,.949,2.664,3.329,3.329,0,0,0,2.5.975,5.064,5.064,0,0,0,2.707-.723A5.09,5.09,0,0,0,40.786-.169h1.672a7.174,7.174,0,0,1-2.542,3.021,6.853,6.853,0,0,1-3.9,1.106,5.26,5.26,0,0,1-2.594-.609,4.194,4.194,0,0,1-1.689-1.706A5.308,5.308,0,0,1,31.14-.918a7.482,7.482,0,0,1,.122-1.358,7.991,7.991,0,0,1,1.306-3.256,7.06,7.06,0,0,1,2.455-2.22A6.583,6.583,0,0,1,38.209-8.544Zm9.82,6.2,4.51,6.2h-1.95L46.48-1.893,45.47,3.853H43.886L46.045-8.422h1.584l-1.01,5.694,6.146-5.694H54.7Zm9.594-4.788-.731,4.2h4.666l-.226,1.219H56.666l-.749,4.283h5.189l-.226,1.288H54.106L56.265-8.422h6.773l-.226,1.288ZM69.115-8.422a4.084,4.084,0,0,1,2.708.766,2.6,2.6,0,0,1,.9,2.089,4.288,4.288,0,0,1-.07.8,4.034,4.034,0,0,1-1.254,2.4,4.766,4.766,0,0,1-2.629,1.149l2.455,5.067H69.428L67.1-1.162H65.389L64.5,3.853H62.916L65.075-8.422ZM71.03-4.679a3.518,3.518,0,0,0,.052-.575q0-1.793-2.333-1.793H66.434L65.6-2.311h2.316Q70.595-2.311,71.03-4.679Z" transform="translate(191.644 121.182)" fill="#fff"/>
    <path id="Path_33" data-name="Path 33" d="M30.72.25H-.25v-.5H30.72Z" transform="translate(275.972 89.486)" fill="#fff"/>
    <path id="Path_32" data-name="Path 32" d="M50.784.25H0v-.5H50.784Z" transform="translate(277.619 101.094)" fill="#fff"/>
    <path id="Path_28" data-name="Path 28" d="M40.627.25H0v-.5H40.627Z" transform="translate(261.913 124.78)" fill="#fff"/>
    <path id="Path_29" data-name="Path 29" d="M2.25,0A2.605,2.605,0,0,1,4.5,2.852,2.605,2.605,0,0,1,2.25,5.7,2.605,2.605,0,0,1,0,2.852,2.605,2.605,0,0,1,2.25,0Z" transform="matrix(0.799, 0.602, -0.602, 0.799, 228.789, 115.334)" fill="#fff"/>
  </g>
</svg>
